<?xml version="1.0" encoding="UTF-8"?>
<svg xmlns="http://www.w3.org/2000/svg" viewBox="0 0 500 280" width="500" height="280">
<style>text { font: 12px sans-serif; } .title { font: 14px sans-serif; }</style>
<text x="250.0" y="20" text-anchor="middle" class="title">Run-level: wall_s</text>
<text x="40" y="140.0" text-anchor="middle" transform="rotate(-90,40,140.0)">Wall time (s)</text>
<line x1="152.5" y1="130.54308750479453" x2="152.5" y2="170.7978549092188" stroke="#333" stroke-width="1"/>
<line x1="152.5" y1="130.54308750479453" x2="152.5" y2="113.16143430581194" stroke="#333" stroke-width="1"/>
<line x1="121.75" y1="170.7978549092188" x2="183.25" y2="170.7978549092188" stroke="#333" stroke-width="1"/>
<line x1="121.75" y1="113.16143430581194" x2="183.25" y2="113.16143430581194" stroke="#333" stroke-width="1"/>
<rect x="121.75" y="124.51856640625041" width="61.5" height="28.866331641874837" fill="#cce5ff" stroke="#333" stroke-width="1"/>
<line x1="121.75" y1="130.54308750479453" x2="183.25" y2="130.54308750479453" stroke="#333" stroke-width="2"/>
<text x="152.5" y="275" text-anchor="middle">c=false,s=false</text>
<line x1="255.0" y1="149.73590412683603" x2="255.0" y2="174.84578291485843" stroke="#333" stroke-width="1"/>
<line x1="255.0" y1="149.73590412683603" x2="255.0" y2="55.833333333333286" stroke="#333" stroke-width="1"/>
<line x1="224.25" y1="174.84578291485843" x2="285.75" y2="174.84578291485843" stroke="#333" stroke-width="1"/>
<line x1="224.25" y1="55.833333333333286" x2="285.75" y2="55.833333333333286" stroke="#333" stroke-width="1"/>
<rect x="224.25" y="124.54389342739329" width="61.5" height="36.04780178665591" fill="#cce5ff" stroke="#333" stroke-width="1"/>
<line x1="224.25" y1="149.73590412683603" x2="285.75" y2="149.73590412683603" stroke="#333" stroke-width="2"/>
<text x="255.0" y="275" text-anchor="middle">c=false,s=true</text>
<line x1="357.5" y1="202.25634686263163" x2="357.5" y2="214.16666666666666" stroke="#333" stroke-width="1"/>
<line x1="357.5" y1="202.25634686263163" x2="357.5" y2="195.4808460858517" stroke="#333" stroke-width="1"/>
<line x1="326.75" y1="214.16666666666666" x2="388.25" y2="214.16666666666666" stroke="#333" stroke-width="1"/>
<line x1="326.75" y1="195.4808460858517" x2="388.25" y2="195.4808460858517" stroke="#333" stroke-width="1"/>
<rect x="326.75" y="200.3743481836146" width="61.5" height="7.7169289335776625" fill="#cce5ff" stroke="#333" stroke-width="1"/>
<line x1="326.75" y1="202.25634686263163" x2="388.25" y2="202.25634686263163" stroke="#333" stroke-width="2"/>
<text x="357.5" y="275" text-anchor="middle">c=true,s=false</text>
</svg>